
<svg id="Artwork" xmlns="http://www.w3.org/2000/svg" viewBox="0 0 113.39 113.39"><path d="M107.72,309.66c1.71-3.56,3.5-7.05,5.47-10.4a113.36,113.36,0,0,1-5.46-16.78C107.72,291.85,107.72,301.84,107.72,309.66Zm10.61-68.72s-10.59,0-10.59,13.13v7a124.67,124.67,0,0,0,7.68,34.57,111.26,111.26,0,0,1,21.7-25.3c17.15-14.71,40.25-24.89,71.6-29.37Z" transform="translate(-107.71 -240.94)" style="fill:#a8bd3a"/><path d="M220.54,248.12c-35.85,3.42-60.34,13.67-77.88,28.67a105.26,105.26,0,0,0-23,28.3c13.76,26.73,40,46.37,83.73,49.24h4.26s13.44.46,13.44-14.51V248A4.88,4.88,0,0,1,220.54,248.12Zm-92.16,76.13a92.09,92.09,0,0,1-10.67-15.59,169.64,169.64,0,0,0-10,23.38v22.29H179.4c-22.35-5.33-39.1-16.1-51-30.08Z" transform="translate(-107.71 -240.94)" style="fill:#003c57"/></svg>